<svg id="Layer_1" data-name="Layer 1" xmlns="http://www.w3.org/2000/svg" x="0px" y="0px" viewBox="0 0 80 80" style="enable-background:new 0 0 80 80;" xml:space="preserve"><defs><style>.cls-1{fill:#fff}</style></defs><title>usn-logo</title><path class="cls-1" d="M32.54 33.78a1.22 1.22 0 0 0-.32.19.87.87 0 0 1-.26.18c-.15.06-.38 0-.81-1.2L28 24.35c-.28-.74-.55-1-1-.79s-1 .6-1.6.81-1.1.19-1.59.38a1.2 1.2 0 0 0-.63 1.74 1 1 0 0 0 1.24.77c.24-.09.38-.3.57-.37s.49.27.83 1.18l2.24 6c.35 1 .42 1.36.15 1.46a2.07 2.07 0 0 1-.31 0 1.59 1.59 0 0 0-.36.07.79.79 0 0 0-.21.14h-.13c-.24.09-.39.29-.58.36s-.41-.07-.82-1.21l-2-5.71a.55.55 0 0 0-.83-.41c-.48.17-.77.49-1.29.67s-1.11.19-1.74.41a1.2 1.2 0 0 0-.69 1.72 1 1 0 0 0 1.23.79 1 1 0 0 0 .31-.2 1.7 1.7 0 0 1 .21-.1c.27-.1.45.18.82 1.21l.47 1.31a3.5 3.5 0 0 1 .26 2.12 1.72 1.72 0 0 1-1.09 1.3 1.37 1.37 0 0 1-1.28-.22 3.34 3.34 0 0 1-.74-1.36l-1.69-4.74c-.18-.49-.31-.85-.8-.68s-.69.47-1.28.68-1.2.21-1.8.43a1.22 1.22 0 0 0-.75 1.75.91.91 0 0 0 1.54.59 2.07 2.07 0 0 1 .27-.16c.21-.07.41.05.82 1.21L17 39a3 3 0 0 0 4.24 1.95A4.37 4.37 0 0 0 24 38.09l.27.76a.67.67 0 0 0 .91.38c.36-.13.71-.47 1.13-.62s.94-.12 1.42-.29a1.17 1.17 0 0 0 .48-.3 1.16 1.16 0 0 0 .42-.07c.68-.25 1.33-.71 2.05-1s1.6-.38 2.42-.69a1.2 1.2 0 0 0 .63-1.72 1 1 0 0 0-1.24-.77m8 10.3c-.24.09-.39.29-.58.36s-.41-.06-.83-1.2L37 37.55a.55.55 0 0 0-.84-.4c-.48.18-.76.5-1.27.69s-1.11.2-1.74.43a1.21 1.21 0 0 0-.7 1.73 1 1 0 0 0 1.24.77 1.06 1.06 0 0 0 .31-.2 1.71 1.71 0 0 1 .27-.16c.27-.1.45.18.84 1.2l.48 1.31a3.54 3.54 0 0 1 .28 2.08 1.72 1.72 0 0 1-1.08 1.26 1.37 1.37 0 0 1-1.28-.19 3.38 3.38 0 0 1-.76-1.36L31 40c-.18-.49-.31-.85-.81-.67s-.68.47-1.27.69-1.15.23-1.73.43a1.12 1.12 0 0 0-.89 0 .92.92 0 0 0-.84 1.17 3.94 3.94 0 0 0-2.81-.12 3.46 3.46 0 0 0-2.57 4.5c.77 2.49 2.73 2.24 4.82 1.95 1.34-.18 1.87-.14 2 .44.12.39-.08 1-1.1 1.3a3.43 3.43 0 0 1-1.51.11 2.4 2.4 0 0 1-1.07-.6 1.51 1.51 0 0 0-1.64-.36 1.07 1.07 0 0 0-.88 1.25c.12.38.33.72.45 1.11s.15.81.27 1.19a.93.93 0 0 0 1.39.52.89.89 0 0 0 .7-1.17v-.08a5.06 5.06 0 0 0 3.49.14c2-.63 3.67-2.55 3-4.72-.75-2.4-2.61-2.24-4.67-2l-.88.11c-1 .13-1.35 0-1.48-.47a.89.89 0 0 1 .81-1.12c1.85-.58 1.85 1.25 3.51.73a1 1 0 0 0 .87-1.16 2.24 2.24 0 0 0-.16-.41.88.88 0 0 1 .18-.1c.21-.08.4 0 .84 1.2l1.3 3.51a3 3 0 0 0 4.26 1.89 4.36 4.36 0 0 0 2.73-2.87l.28.76a.67.67 0 0 0 .92.37c.36-.14.71-.48 1.12-.63s.94-.14 1.42-.31a1.19 1.19 0 0 0 .63-1.72 1 1 0 0 0-1.23-.77M40 51.77a1.39 1.39 0 0 1 1.88.59c.08.21.09.34-.34.51l-1.89.77c-.54.22-.79.3-.89.05A1.87 1.87 0 0 1 40 51.77m4.8 3.12a1.72 1.72 0 0 0-1.12 1.33 1.92 1.92 0 0 1-1.22 1.34 2 2 0 0 1-2.69-1.09c-.13-.32-.1-.42.38-.62L44.66 54c1.12-.45 1.11-.82.76-1.68-1.12-2.78-3.45-3.84-6.33-2.67-3.07 1.25-4 4.23-2.8 7.2a6.55 6.55 0 0 0 .82 1.44l-.15.08a.88.88 0 0 1-.26.17c-.23.08-.41-.08-.79-1.23l-1.06-3.25a3.39 3.39 0 0 0-4.39-2.37 4.49 4.49 0 0 0-2.76 2.86l-.16-.49c-.25-.77-.32-1-.86-.82s-.76.46-1.3.64-1.19.18-1.64.33a1.21 1.21 0 0 0-.32 1.56 1 1 0 0 0 1.2.82c.25-.08.4-.28.59-.34s.43.14.79 1.23l.9 2.77c.37 1.13.36 1.37.09 1.46a2.19 2.19 0 0 1-.31 0 1.57 1.57 0 0 0-.37.05 1 1 0 0 0-.49 1.38 1.2 1.2 0 0 0 1.18 1.1c.66-.21 1.32-.64 2.05-.88s1.62-.32 2.51-.6c.53-.18.58-.85.33-1.58s-.63-1-.92-.92a.6.6 0 0 0-.27.15.51.51 0 0 1-.19.15c-.15 0-.31-.16-.67-1.27l-.61-1.85a2 2 0 0 1 1.09-2.72c.76-.23 1.36.11 1.71 1.18l.78 2.4c.36 1.08.43 1.36.19 1.43a.7.7 0 0 1-.23 0 .65.65 0 0 0-.26 0c-.27.09-.52.43-.24 1.29s.78 1.21 1.2 1.07c.69-.23 1.05-.56 1.78-.8s1.75-.29 2.52-.57a1.07 1.07 0 0 0 .8-1 5.13 5.13 0 0 0 4.75.24c2.44-1 3.77-3 3.2-4.39a1.26 1.26 0 0 0-1.77-.66"/><path class="cls-1" d="M60.78 36.68a1.65 1.65 0 0 1-.31 0c-.11 0-.21 0-.32.06a1.26 1.26 0 0 0-1.7-.69 1.72 1.72 0 0 0-1.19 1.26 1.92 1.92 0 0 1-1.26 1.3 2 2 0 0 1-2.62-1.24c-.11-.32-.08-.42.42-.59l4.65-1.59c1.15-.39 1.15-.75.85-1.63a5.87 5.87 0 0 0-1-1.9c.25-.09.39-.29.58-.36s.4 0 .83 1.2l1 2.73c.42 1.14.38 1.37.15 1.45m-7 5.22a1.06 1.06 0 0 0-.61 1.56 1 1 0 0 0 1.35.69c.23-.09.46-.16.57.12a2.17 2.17 0 0 1 .1.53l.65 4.5-3.07-4.88c-1-1.5-1.17-1.69-2.89-1-1.42.55-1.56 1-1.33 2.4l1 5.94-2.29-3.64a4 4 0 0 1-.35-.63.37.37 0 0 1 0-.15c.2-.06.39-.12.59-.2a1.2 1.2 0 0 0 .6-1.73 1 1 0 0 0-1.25-.75 1.89 1.89 0 0 0-.32.19.93.93 0 0 1-.26.19c-.24.1-.43-.11-.85-1.19l-.24-.6a4.16 4.16 0 0 0 2.84.22 4.11 4.11 0 0 0 2.6-4.54 4.89 4.89 0 0 0 5.59 2.27 4.32 4.32 0 0 1-.46.21c-.62.24-1.32.29-1.86.5m-9.72-6c.94-.37 2.1 0 2.82 1.89s.12 2.94-.78 3.3-1.91-.19-2.61-2-.35-2.86.57-3.21m9.76-3.26a1.4 1.4 0 0 1 1.84.7c.07.21.07.34-.37.49l-1.93.66c-.56.19-.81.26-.9 0a1.87 1.87 0 0 1 1.36-1.85m9.8-5.95a3.09 3.09 0 0 0-2.16 3.55l-.52-1.42c-.25-.68-.47-.76-.89-.6s-.76.49-1.18.65-1.06.14-1.6.36a1.07 1.07 0 0 0-.53 1.4 4.88 4.88 0 0 0-3.85-.08 5 5 0 0 0-3.56 5.06 6.3 6.3 0 0 0-1.93-2.21 4 4 0 0 0-6 2.45l-.12-.32c-.25-.64-.46-1-1-.75s-.83.54-1.27.71-.9.13-1.26.28a1.18 1.18 0 0 0-.55 1.71 1 1 0 0 0 1.24.75c.25-.1.39-.3.57-.37s.42.15.8 1.15l2.32 6c.41 1.06.4 1.37.18 1.45a.9.9 0 0 1-.31 0 2.47 2.47 0 0 0-.36.08 1 1 0 0 0-.41 1.4 1.18 1.18 0 0 0 1.52.9 4.46 4.46 0 0 0 .57-.27 1.62 1.62 0 0 1 .69.66l3.5 4.87c.61.84 1 1 1.73.76.36-.14.64-.46 1-.61s.73-.06 1.09-.2a.72.72 0 0 0 .5-.8 10 10 0 0 0-.16-1.54l-.74-5.1 3.11 5.06a1.32 1.32 0 0 0 1.53.79c.36-.14.65-.46 1-.61s.73-.07 1.09-.2c.7-.27.59-1.29.54-1.92l-.37-6.06c0-.65 0-.81.18-.87s.35 0 .52-.07a1 1 0 0 0 .41-1.39 1.33 1.33 0 0 0-1-1 4.88 4.88 0 0 0 1.74-1.7 1 1 0 0 0 1.18.48c.68-.25 1.34-.7 2.06-1s1.61-.37 2.63-.75a1.17 1.17 0 0 0 .47-1.66A1 1 0 0 0 65 35a1.23 1.23 0 0 0-.32.19.76.76 0 0 1-.26.18c-.22.09-.41-.08-.83-1.2-.54-1.48-1.5-4.27.47-5l.16-.05a1.79 1.79 0 0 0 0 .82 1.33 1.33 0 0 0 1.79.75 1.83 1.83 0 0 0 .99-2.5 2.6 2.6 0 0 0-3.38-1.45m-18.95 1.97c0 .08.07.13.1.2a1.16 1.16 0 0 0-.32.18.85.85 0 0 1-.26.18c-.23.08-.42-.09-.83-1.21-.54-1.48-1.49-4.27.48-5L44 23a1.84 1.84 0 0 0 0 .82 1.33 1.33 0 0 0 1.78.75 1.71 1.71 0 0 0 1-1.11 2.25 2.25 0 0 0-.07-1.46c-.14-.38.15-.55.47-.66a1.22 1.22 0 0 1 1.68.59c.91 2.51-5.82 2.31-4.19 6.82m5.4-3.47a1.66 1.66 0 0 1-1 2.39 1 1 0 0 1-1.41-.5c-.37-1 1.94-1.52 2.28-2.32zm-9.69 3.91c.42 1.14.37 1.37.14 1.45a1.45 1.45 0 0 1-.31 0h-.11c0-.15-.07-.29-.13-.44-.53-1.36-1.25-1.77-2-1.49a1.07 1.07 0 0 0-.64 1.49l.25.64c.26.68.22 1.13-.25 1.31s-.8 0-1.14-.92l-1.35-3.47c-.25-.64-.3-.88.06-1l1.54-.6a1.62 1.62 0 0 0 .86-.61.79.79 0 0 0 .64 0c.24-.09.39-.29.58-.36s.4 0 .83 1.21zm14.2-3.68c-.15.06-.29.15-.44.2s-.37 0-.64-.77l-1.3-3.57c-.53-1.45-1.07-2.28-2.28-2.48a7.23 7.23 0 0 0-3.28.55 6.5 6.5 0 0 0-2.12 1.12 2.73 2.73 0 0 0-1.1.16 3.08 3.08 0 0 0-2.17 3.54l-.57-1.46c-.25-.68-.46-.76-.88-.6s-.77.5-1.18.64-.83.09-1.38.29a.89.89 0 0 0-.58.77 1.29 1.29 0 0 0-.8.08l-1.62.63c-.32.13-.49.19-.78-.55L33 22.88c-.28-.71-.59-.94-1.55-.57-1.45.57-1.55 1-1.18 1.93l.38 1c.24.63.1.76-.54 1a1 1 0 0 0-.54 1.4 1.08 1.08 0 0 0 1.15.75l.38-.14c.44-.17.55 0 .72.39l1.47 3.79.11.28a3.67 3.67 0 0 0 1.6 2.18 3.64 3.64 0 0 0 2.79-.09A3.82 3.82 0 0 0 40 32.93a.88.88 0 0 0 .84.12c.68-.25 1.34-.7 2.06-1s1.61-.37 2.63-.74a1 1 0 0 0 .59-1 3.94 3.94 0 0 0 3 0 4.87 4.87 0 0 0 2.8-2.4 2.3 2.3 0 0 0 2.61.43c.89-.33 1.81-1.11 1.43-2.18a1 1 0 0 0-1.34-.72M66.91 49.3l-.16.06c-.26.1-.24.17-.15.39l.79 2.17c.13.36.17.38.57.26l.1.26-1.56.56-.09-.26c.38-.15.41-.19.28-.56l-.8-2.18-.11 3.27h-.1L63.4 50.9l.85 2.34c.09.25.29.18.5.11l.09.26-1.16.39-.09-.26h.13a.26.26 0 0 0 .22-.2.54.54 0 0 0-.05-.27v-.08L63.08 51v-.09c0-.14-.09-.2-.3-.13h-.13l-.08-.23 1.22-.45 1.68 1.9.12-2.47 1.24-.45zm-4.4 2.33l-.29.11a.52.52 0 0 0-.83-.35l-.39.13.66 1.83a1.64 1.64 0 0 0 .42.91 1.33 1.33 0 0 0 .38-.09h.07l.1.26-1.72.57-.09-.26h.08a1.15 1.15 0 0 0 .35-.17c.06-.08 0-.18-.29-1.09l-.62-1.7-.34.12c-.44.16-.57.35-.41.8l-.29.11-.3-.89 3.21-1.17z"/></svg>